<svg xmlns="http://www.w3.org/2000/svg" width="1000" height="900" viewBox="0 0 1000 900"><defs><filter id="shadow" x="-30%" y="-30%" width="160%" height="160%"><feDropShadow dx="0" dy="2" stdDeviation="5" flood-color="#0f172a" flood-opacity="0.10"/></filter><marker id="arrow-MUTED" viewBox="0 0 10 10" refX="8" refY="5" markerWidth="7" markerHeight="7" orient="auto-start-reverse"><path d="M0,0 L10,5 L0,10 z" fill="#64748B"/></marker><marker id="arrow-INDIGO" viewBox="0 0 10 10" refX="8" refY="5" markerWidth="7" markerHeight="7" orient="auto-start-reverse"><path d="M0,0 L10,5 L0,10 z" fill="#4F46E5"/></marker><marker id="arrow-TEAL" viewBox="0 0 10 10" refX="8" refY="5" markerWidth="7" markerHeight="7" orient="auto-start-reverse"><path d="M0,0 L10,5 L0,10 z" fill="#0D9488"/></marker><marker id="arrow-ORANGE" viewBox="0 0 10 10" refX="8" refY="5" markerWidth="7" markerHeight="7" orient="auto-start-reverse"><path d="M0,0 L10,5 L0,10 z" fill="#EA580C"/></marker><marker id="arrow-SUCCESS" viewBox="0 0 10 10" refX="8" refY="5" markerWidth="7" markerHeight="7" orient="auto-start-reverse"><path d="M0,0 L10,5 L0,10 z" fill="#10B981"/></marker><marker id="arrow-DANGER" viewBox="0 0 10 10" refX="8" refY="5" markerWidth="7" markerHeight="7" orient="auto-start-reverse"><path d="M0,0 L10,5 L0,10 z" fill="#EF4444"/></marker><marker id="arrow-WARNING" viewBox="0 0 10 10" refX="8" refY="5" markerWidth="7" markerHeight="7" orient="auto-start-reverse"><path d="M0,0 L10,5 L0,10 z" fill="#F59E0B"/></marker><marker id="arrow-TEXT" viewBox="0 0 10 10" refX="8" refY="5" markerWidth="7" markerHeight="7" orient="auto-start-reverse"><path d="M0,0 L10,5 L0,10 z" fill="#0F172A"/></marker></defs><rect x="0.0" y="0.0" width="1000.0" height="900.0" rx="0" fill="#F8FAFC"/><rect x="350.0" y="30.0" width="300.0" height="56.0" rx="14" fill="#FFFFFF" filter="url(#shadow)"/><rect x="350.0" y="30.0" width="6.0" height="56.0" rx="0" fill="#4F46E5"/><g transform="translate(370.0,48.0) scale(0.833)"><line x1="4" y1="20" x2="20" y2="20" stroke="#4F46E5" stroke-width="1.6"/><rect x="6" y="12" width="3" height="8" fill="#4F46E5"/><rect x="11" y="7" width="3" height="13" fill="#4F46E5"/><rect x="16" y="15" width="3" height="5" fill="#4F46E5"/></g><rect x="400.0" y="40.0" width="44.4" height="17.0" rx="8.5" fill="#EEF2FF"/><text x="422.2" y="52.0" font-family="Segoe UI, Inter, Helvetica, Arial, sans-serif" font-size="9.6" fill="#4F46E5" text-anchor="middle" font-weight="700">S-08</text><text x="400.0" y="70.0" font-family="Segoe UI, Inter, Helvetica, Arial, sans-serif" font-size="11.5" fill="#0F172A" text-anchor="start" font-weight="700">Match Score &amp; Gap Analysis</text><line x1="500.0" y1="86.0" x2="500.0" y2="130.0" stroke="#64748B" stroke-width="2" marker-end="url(#arrow-MUTED)"/><rect x="340.0" y="130.0" width="320.0" height="74.0" rx="14" fill="#FFFFFF" filter="url(#shadow)"/><rect x="340.0" y="130.0" width="6.0" height="74.0" rx="0" fill="#4F46E5"/><g transform="translate(360.0,157.0) scale(0.833)"><path d="M4 20 l1 -4.5 L15.5 5 l3.5 3.5 L8.5 19 z" fill="none" stroke="#4F46E5" stroke-width="1.6"/><line x1="13.5" y1="7" x2="17" y2="10.5" stroke="#4F46E5" stroke-width="1.6"/></g><rect x="390.0" y="140.0" width="44.4" height="17.0" rx="8.5" fill="#EEF2FF"/><text x="412.2" y="152.0" font-family="Segoe UI, Inter, Helvetica, Arial, sans-serif" font-size="9.6" fill="#4F46E5" text-anchor="middle" font-weight="700">S-09</text><text x="390.0" y="179.0" font-family="Segoe UI, Inter, Helvetica, Arial, sans-serif" font-size="11.5" fill="#0F172A" text-anchor="start" font-weight="700">Goi y toi uu CV (Accept / Reject)</text><path d="M 660.0,150.0 L 900.0,150.0 L 900.0,167.0" fill="none" stroke="#10B981" stroke-width="2" marker-end="url(#arrow-SUCCESS)"/><rect x="753.8" y="139.0" width="52.4" height="20.0" rx="8" fill="#FFFFFF" stroke="#E2E8F0" stroke-width="1"/><text x="780.0" y="154.0" font-family="Segoe UI, Inter, Helvetica, Arial, sans-serif" font-size="9.3" fill="#10B981" text-anchor="middle" font-weight="700">Accept</text><path d="M 900.0,167.0 L 660.0,167.0" fill="none" stroke="#10B981" stroke-width="2" marker-end="url(#arrow-SUCCESS)"/><path d="M 660.0,190.0 L 900.0,190.0 L 900.0,207.0" fill="none" stroke="#64748B" stroke-width="2" marker-end="url(#arrow-MUTED)"/><rect x="753.8" y="179.0" width="52.4" height="20.0" rx="8" fill="#FFFFFF" stroke="#E2E8F0" stroke-width="1"/><text x="780.0" y="194.0" font-family="Segoe UI, Inter, Helvetica, Arial, sans-serif" font-size="9.3" fill="#64748B" text-anchor="middle" font-weight="700">Reject</text><path d="M 900.0,207.0 L 660.0,207.0" fill="none" stroke="#64748B" stroke-width="2" marker-end="url(#arrow-MUTED)"/><path d="M 340.0,175.0 L 150.0,175.0 L 150.0,260.0" fill="none" stroke="#F59E0B" stroke-width="2" marker-end="url(#arrow-WARNING)"/><rect x="98.2" y="206.5" width="103.6" height="20.0" rx="8" fill="#FFFFFF" stroke="#E2E8F0" stroke-width="1"/><text x="150.0" y="221.5" font-family="Segoe UI, Inter, Helvetica, Arial, sans-serif" font-size="9.3" fill="#F59E0B" text-anchor="middle" font-weight="700">Thieu evidence</text><polygon points="150,260.0 260.0,302.0 150,344.0 40.0,302.0" fill="#FFFBEB" stroke="#F59E0B" stroke-width="1.6" filter="url(#shadow)"/><text x="150.0" y="307.0" font-family="Segoe UI, Inter, Helvetica, Arial, sans-serif" font-size="10.3" fill="#0F172A" text-anchor="middle" font-weight="700">Sinh vien bo sung / xac nhan?</text><path d="M 40.0,302.0 L 30.0,302.0 L 30.0,130.0" fill="none" stroke="#F59E0B" stroke-width="2" marker-end="url(#arrow-WARNING)"/><rect x="5.6" y="291.0" width="58.8" height="20.0" rx="8" fill="#FFFFFF" stroke="#E2E8F0" stroke-width="1"/><text x="35.0" y="306.0" font-family="Segoe UI, Inter, Helvetica, Arial, sans-serif" font-size="9.3" fill="#F59E0B" text-anchor="middle" font-weight="700">Bo sung</text><rect x="0.0" y="100.0" width="130.2" height="20.0" rx="10.0" fill="#FFFBEB"/><text x="65.1" y="113.5" font-family="Segoe UI, Inter, Helvetica, Arial, sans-serif" font-size="9.6" fill="#92400E" text-anchor="middle" font-weight="700">-&gt; S-05 (Flow 01)</text><path d="M 260.0,302.0 L 340.0,260.0" fill="none" stroke="#64748B" stroke-width="2" marker-end="url(#arrow-MUTED)"/><rect x="294.6" y="249.0" width="90.8" height="20.0" rx="8" fill="#FFFFFF" stroke="#E2E8F0" stroke-width="1"/><text x="340.0" y="264.0" font-family="Segoe UI, Inter, Helvetica, Arial, sans-serif" font-size="9.3" fill="#64748B" text-anchor="middle" font-weight="700">Bo qua goi y</text><line x1="500.0" y1="204.0" x2="500.0" y2="330.0" stroke="#10B981" stroke-width="2" marker-end="url(#arrow-SUCCESS)"/><rect x="435.4" y="256.0" width="129.2" height="20.0" rx="8" fill="#FFFFFF" stroke="#E2E8F0" stroke-width="1"/><text x="500.0" y="271.0" font-family="Segoe UI, Inter, Helvetica, Arial, sans-serif" font-size="9.3" fill="#10B981" text-anchor="middle" font-weight="700">Da xu ly het goi y</text><rect x="350.0" y="330.0" width="300.0" height="66.0" rx="14" fill="#FFFFFF" filter="url(#shadow)"/><rect x="350.0" y="330.0" width="6.0" height="66.0" rx="0" fill="#4F46E5"/><g transform="translate(370.0,353.0) scale(0.833)"><line x1="12" y1="4" x2="12" y2="15" stroke="#4F46E5" stroke-width="1.8"/><polyline points="7,10 12,15 17,10" fill="none" stroke="#4F46E5" stroke-width="1.8"/><path d="M5 17 v2 a2 2 0 0 0 2 2 h10 a2 2 0 0 0 2 -2 v-2" fill="none" stroke="#4F46E5" stroke-width="1.6"/></g><rect x="400.0" y="340.0" width="44.4" height="17.0" rx="8.5" fill="#EEF2FF"/><text x="422.2" y="352.0" font-family="Segoe UI, Inter, Helvetica, Arial, sans-serif" font-size="9.6" fill="#4F46E5" text-anchor="middle" font-weight="700">S-10</text><text x="400.0" y="375.0" font-family="Segoe UI, Inter, Helvetica, Arial, sans-serif" font-size="11.5" fill="#0F172A" text-anchor="start" font-weight="700">Xac nhan &amp; Tai CV</text><path d="M 650.0,350.0 L 880.0,350.0 L 880.0,363.0" fill="none" stroke="#EF4444" stroke-width="2" marker-end="url(#arrow-DANGER)"/><rect x="700.4" y="339.0" width="129.2" height="20.0" rx="8" fill="#FFFFFF" stroke="#E2E8F0" stroke-width="1"/><text x="765.0" y="354.0" font-family="Segoe UI, Inter, Helvetica, Arial, sans-serif" font-size="9.3" fill="#EF4444" text-anchor="middle" font-weight="700">Chua tick xac nhan</text><path d="M 880.0,363.0 L 650.0,363.0" fill="none" stroke="#EF4444" stroke-width="2" marker-end="url(#arrow-DANGER)"/><line x1="500.0" y1="396.0" x2="500.0" y2="460.0" stroke="#10B981" stroke-width="2" marker-end="url(#arrow-SUCCESS)"/><rect x="457.8" y="417.0" width="84.4" height="20.0" rx="8" fill="#FFFFFF" stroke="#E2E8F0" stroke-width="1"/><text x="500.0" y="432.0" font-family="Segoe UI, Inter, Helvetica, Arial, sans-serif" font-size="9.3" fill="#10B981" text-anchor="middle" font-weight="700">Da xac nhan</text><rect x="350.0" y="460.0" width="300.0" height="50.0" rx="25.0" fill="#10B981" filter="url(#shadow)"/><text x="500.0" y="490.0" font-family="Segoe UI, Inter, Helvetica, Arial, sans-serif" font-size="11.5" fill="#FFFFFF" text-anchor="middle" font-weight="700">Tai CV PDF thanh cong</text></svg>