<svg xmlns="http://www.w3.org/2000/svg" width="1000" height="680" viewBox="0 0 1000 680"><defs><filter id="shadow" x="-30%" y="-30%" width="160%" height="160%"><feDropShadow dx="0" dy="2" stdDeviation="5" flood-color="#0f172a" flood-opacity="0.10"/></filter></defs><rect x="0.0" y="0.0" width="1000.0" height="680.0" rx="0" fill="#F8FAFC"/><rect x="0.0" y="0.0" width="1000.0" height="60.0" rx="0" fill="#4F46E5"/><text x="28.0" y="37.0" font-family="Segoe UI, Inter, Helvetica, Arial, sans-serif" font-size="16.5" fill="#FFFFFF" text-anchor="start" font-weight="700">Career Assistant X</text><g transform="translate(904.0,20.0) scale(0.833)"><path d="M12 3 c-3 0 -4.5 2.5 -4.5 6 v3 l-2 3 h13 l-2 -3 v-3 c0 -3.5 -1.5 -6 -4.5 -6 z" fill="none" stroke="#FFFFFF" stroke-width="1.6"/><path d="M10 18 a2 2 0 0 0 4 0" fill="none" stroke="#FFFFFF" stroke-width="1.6"/></g><circle cx="960.0" cy="30.0" r="18.0" fill="#FFFFFF" fill-opacity="0.22"/><text x="960.0" y="35.0" font-family="Segoe UI, Inter, Helvetica, Arial, sans-serif" font-size="12" fill="#FFFFFF" text-anchor="middle" font-weight="700">SV</text><rect x="270.0" y="220.0" width="460.0" height="220.0" rx="18" fill="#FFFFFF" filter="url(#shadow)"/><circle cx="500.0" cy="264.0" r="26.0" fill="#FEF2F2"/><g transform="translate(488.0,252.0) scale(1.000)"><circle cx="12" cy="12" r="9" fill="none" stroke="#EF4444" stroke-width="1.6"/><line x1="8.5" y1="8.5" x2="15.5" y2="15.5" stroke="#EF4444" stroke-width="1.8"/><line x1="15.5" y1="8.5" x2="8.5" y2="15.5" stroke="#EF4444" stroke-width="1.8"/></g><text x="500.0" y="312.0" font-family="Segoe UI, Inter, Helvetica, Arial, sans-serif" font-size="14.5" fill="#0F172A" text-anchor="middle" font-weight="700">Khong the tai file len</text><rect x="300.0" y="330.0" width="400.0" height="50.0" rx="10" fill="#FEF2F2"/><text x="316.0" y="351.0" font-family="Segoe UI, Inter, Helvetica, Arial, sans-serif" font-size="10.8" fill="#EF4444" text-anchor="start" font-weight="400">File vuot 10MB hoac sai dinh dang.</text><text x="316.0" y="367.0" font-family="Segoe UI, Inter, Helvetica, Arial, sans-serif" font-size="10.8" fill="#EF4444" text-anchor="start" font-weight="400">Chi ho tro .pdf va .docx.</text><rect x="300.0" y="396.0" width="400.0" height="38.0" rx="10" fill="#4F46E5"/><text x="500.0" y="419.5" font-family="Segoe UI, Inter, Helvetica, Arial, sans-serif" font-size="12" fill="#FFFFFF" text-anchor="middle" font-weight="600">Chon file khac</text></svg>